<svg xmlns="http://www.w3.org/2000/svg" xmlns:xlink="http://www.w3.org/1999/xlink" version="1.1" width="2592pt" height="1296pt" viewBox="0 0 2592 1296">
<defs>
<clipPath id="clip_0">
<path transform="matrix(.24,0,0,.24,0,0)" d="M0 0H10800V5400H0Z" fill-rule="evenodd"/>
</clipPath>
<clipPath id="clip_1">
<path transform="matrix(.24,0,0,.24,0,0)" d="M0 0H10800V5400H0Z" fill-rule="evenodd"/>
</clipPath>
<clipPath id="clip_2">
<path transform="matrix(.24,0,0,.24,0,0)" d="M0 0H10800V5431.25H0Z"/>
</clipPath>
<clipPath id="clip_3">
<path transform="matrix(.24,0,0,.24,0,0)" d="M0 0H10800V5400H0Z"/>
</clipPath>
<clipPath id="clip_4">
<path transform="matrix(.24,0,0,.24,0,0)" d="M0 0H10800V5400H0Z"/>
</clipPath>
<clipPath id="clip_5">
<path transform="matrix(.24,0,0,.24,0,0)" d="M4363.2727 1132.8855H6869.3024V2107.3787H4363.2727Z"/>
</clipPath>
<clipPath id="clip_6">
<path transform="matrix(.24,0,0,.24,0,0)" d="M6544.8615 1132.8855C6724.045 1132.8855 6869.3024 1351.0332 6869.3024 1620.1321 6869.3024 1889.231 6724.045 2107.3787 6544.8615 2107.3787H4687.7136C4508.53 2107.3787 4363.2727 1889.231 4363.2727 1620.1321 4363.2727 1351.0332 4508.53 1132.8855 4687.7136 1132.8855H6544.8615Z"/>
</clipPath>
<clipPath id="clip_7">
<path transform="matrix(.24,0,0,.24,0,0)" d="M6120.096 1889.9967H6245.424V2015.3244H6120.096Z" fill-rule="evenodd"/>
</clipPath>
<clipPath id="clip_8">
<path transform="matrix(.24,0,0,.24,0,0)" d="M0 0H10800V5431.25H0Z"/>
</clipPath>
<clipPath id="clip_9">
<path transform="matrix(.24,0,0,.24,0,0)" d="M0 0H10800V5400H0Z"/>
</clipPath>
<clipPath id="clip_10">
<path transform="matrix(.24,0,0,.24,0,0)" d="M0 0H10800V5400H0Z"/>
</clipPath>
<clipPath id="clip_11">
<path transform="matrix(.24,0,0,.24,0,0)" d="M4452.185 1042.3551 5095.721 1583.1984 4560.9099 2219.5577 3917.3736 1678.7144 4452.185 1042.3551Z"/>
</clipPath>
<clipPath id="clip_12">
<path transform="matrix(.24,0,0,.24,0,0)" d="M4452.185 1042.3551 5095.721 1583.1984 4560.9099 2219.5577 3917.3736 1678.7144 4452.185 1042.3551Z"/>
</clipPath>
<clipPath id="clip_13">
<path transform="matrix(.24,0,0,.24,0,0)" d="M0 0H10800V5400H0Z" fill-rule="evenodd"/>
</clipPath>
</defs>
<g clip-path="url(#clip_0)">
<path transform="matrix(.75,0,0,.75,0,0)" d="M0 0H3456V1728H0Z" fill="#ffffff"/>
</g>
<g clip-path="url(#clip_1)">
<path transform="matrix(.75,0,0,.75,0,0)" d="M0 0H3456V1728H0Z" fill="#ffffff"/>
</g>
<g clip-path="url(#clip_2)">
<g clip-path="url(#clip_3)">
<g clip-path="url(#clip_4)">
<g clip-path="url(#clip_5)">
<g clip-path="url(#clip_6)">
<path transform="matrix(2.349403,0,0,.9135874,1047.1854,271.89253)" d="M0 0H256V256H0Z" fill="#0c34e8"/>
</g>
</g>
</g>
</g>
</g>
<g clip-path="url(#clip_7)">
<path transform="matrix(.11749468,0,0,.11749468,1468.823,453.5992)" d="M0 0H256V256H0Z" fill="#ffffff"/>
</g>
<g clip-path="url(#clip_8)">
<g clip-path="url(#clip_9)">
<g clip-path="url(#clip_10)">
<g clip-path="url(#clip_11)">
<g clip-path="url(#clip_12)">
<path transform="matrix(.08142021,.068427499,-.068427499,.08142021,906.6158,-61.49817)" d="M3270.4 1870.5C3270.4 1644.35 3342.24 1434.98 3464.3299 1263.95 3213.64 1454.86 3051.8099 1756.48 3051.8099 2095.91 3051.8099 2673.0999 3519.7198 3141.0098 4096.9099 3141.0098 4447.9499 3141.0098 4758.5598 2967.9298 4948.0798 2702.4498 4772.4699 2836.1798 4553.26 2915.5897 4315.4899 2915.5897 3738.3897 2915.5897 3270.3897 2447.6898 3270.3897 1870.4896L3270.4 1870.5Z" fill="#1a41f1"/>
</g>
</g>
</g>
</g>
</g>
<g clip-path="url(#clip_13)">
<text fill="#ffffff" xml:space="preserve" transform="matrix(.6102123 0 0 .6102123 989.8403 243.68231)" font-size="444" font-family="LeagueSpartan" font-weight="bold"><tspan y="418" x="6.796875">O</tspan></text>
<text fill="#ffffff" xml:space="preserve" transform="matrix(.6102123 0 0 .6102123 989.8403 243.68231)" font-size="444" font-family="LeagueSpartan" font-weight="bold"><tspan y="418" x="382.875"> </tspan></text>
<text fill="#1a41f1" xml:space="preserve" transform="matrix(.61686608 0 0 .61686608 383.2255 76.59019)" font-size="552.26" font-family="Blanka"><tspan y="661" x="15.375">J</tspan></text>
<text fill="#1a41f1" xml:space="preserve" transform="matrix(.61686608 0 0 .61686608 383.2255 76.59019)" font-size="552.26" font-family="Blanka"><tspan y="661" x="201.5 322.9968 444.4936">   </tspan></text>
<text fill="#ffffff" xml:space="preserve" transform="matrix(.65282317 0 0 .65282317 1469.4614 242.94834)" font-size="308.7" font-family="Blanka"><tspan y="361" x="0">n</tspan></text>
<text fill="#ffffff" xml:space="preserve" transform="matrix(.48251725 0 0 .48251725 1216.7433 188.85692)" font-size="517.35" font-family="Blanka"><tspan y="605" x="0">w</tspan></text>
<text fill="#1a41f1" xml:space="preserve" transform="matrix(.49241374 0 0 .49241374 505.96183 283.11216)" font-size="419.36" font-family="LeagueSpartan" font-weight="bold"><tspan y="395" x="19.375 372.8948 637.9299">OBS</tspan></text>
</g>
</svg>
